<svg width="24" height="24" viewBox="0 0 24 24" xmlns="http://www.w3.org/2000/svg">
<path   fill='currentColor' d="M19.3461 17.9989C16.7265 17.8596 12.7546 16.3915 10.6555 12.3086C8.55674 8.23662 9.6916 4.58032 10.7217 2.58868C10.7213 2.58848 10.7209 2.58827 10.7205 2.58808C10.7187 2.58731 10.7166 2.58665 10.714 2.58625C10.7117 2.5859 10.7079 2.5856 10.7025 2.58614C6.15222 3.20486 2.62471 7.03199 2.48617 11.7141C2.96803 11.5749 3.47407 11.5 4.00015 11.5C5.76799 11.5 7.38884 12.3545 8.40781 13.7219C10.1986 14.3145 11.5002 16.0026 11.5002 18C11.5002 19.3142 10.9245 20.4842 10.028 21.3018M19.3461 17.9989C19.3454 17.9988 19.3445 17.9987 19.3437 17.9987L19.3801 17.5L19.3541 17.9993C19.3514 17.9992 19.3488 17.999 19.3461 17.9989ZM19.3461 17.9989C19.3498 17.9993 19.3519 18 19.3528 18.0004C19.3541 18.0008 19.3551 18.0014 19.3559 18.002C19.3574 18.003 19.359 18.0047 19.3604 18.0068M19.3604 18.0068C17.6106 20.1445 14.9613 21.51 11.9902 21.51C11.3211 21.51 10.6635 21.4372 10.028 21.3018M19.3604 18.0068C19.3613 18.0057 19.3622 18.0046 19.3631 18.0035L19.3634 18.0038L19.7502 18.32L19.363 18.0054C19.3628 18.0063 19.3626 18.0072 19.3625 18.0082C19.3621 18.0122 19.3631 18.0123 19.3617 18.0092C19.3613 18.0084 19.3609 18.0076 19.3604 18.0068ZM10.028 21.3018C9.87083 21.4452 9.70378 21.5777 9.52825 21.6983L8.10015 14.15C9.77015 14.63 11.0002 16.17 11.0002 18C11.0002 19.2866 10.3768 20.4227 9.42736 21.1537C9.6251 21.2092 9.82544 21.2587 10.028 21.3018Z" />
<path   fill='currentColor' d="M6.34987 16.1702L6.46927 16.5H6.82H7C7.82386 16.5 8.5 17.1761 8.5 18C8.5 18.8239 7.82386 19.5 7 19.5H6.997H6.99396H6.9909H6.9878H6.98467H6.98151H6.97833H6.97511H6.97186H6.96858H6.96527H6.96193H6.95856H6.95517H6.95174H6.94828H6.9448H6.94128H6.93774H6.93416H6.93056H6.92693H6.92327H6.91959H6.91587H6.91213H6.90835H6.90455H6.90072H6.89687H6.89299H6.88907H6.88514H6.88117H6.87718H6.87316H6.86911H6.86504H6.86094H6.85681H6.85266H6.84848H6.84427H6.84004H6.83578H6.8315H6.82719H6.82285H6.81849H6.81411H6.8097H6.80526H6.8008H6.79631H6.7918H6.78726H6.7827H6.77812H6.77351H6.76887H6.76421H6.75953H6.75483H6.7501H6.74534H6.74057H6.73577H6.73094H6.7261H6.72123H6.71633H6.71142H6.70648H6.70152H6.69654H6.69153H6.6865H6.68145H6.67638H6.67128H6.66617H6.66103H6.65587H6.65069H6.64549H6.64027H6.63502H6.62976H6.62447H6.61916H6.61384H6.60849H6.60312H6.59773H6.59232H6.58689H6.58144H6.57597H6.57049H6.56498H6.55945H6.5539H6.54834H6.54275H6.53715H6.53153H6.52588H6.52022H6.51454H6.50885H6.50313H6.4974H6.49165H6.48588H6.48009H6.47428H6.46846H6.46262H6.45676H6.45089H6.445H6.43909H6.43316H6.42722H6.42126H6.41528H6.40929H6.40328H6.39726H6.39122H6.38516H6.37909H6.373H6.36689H6.36077H6.35464H6.34849H6.34232H6.33614H6.32995H6.32374H6.31751H6.31127H6.30502H6.29875H6.29247H6.28617H6.27986H6.27354H6.2672H6.26085H6.25448H6.2481H6.24171H6.23531H6.22889H6.22246H6.21601H6.20956H6.20309H6.19661H6.19011H6.18361H6.17709H6.17056H6.16402H6.15746H6.1509H6.14432H6.13773H6.13113H6.12452H6.1179H6.11127H6.10462H6.09797H6.0913H6.08463H6.07794H6.07125H6.06454H6.05782H6.0511H6.04436H6.03762H6.03086H6.0241H6.01732H6.01054H6.00375H5.99695H5.99014H5.98332H5.97649H5.96966H5.96281H5.95596H5.9491H5.94223H5.93535H5.92847H5.92158H5.91468H5.90777H5.90086H5.89394H5.88701H5.88007H5.87313H5.86618H5.85922H5.85226H5.84529H5.83832H5.83134H5.82435H5.81736H5.81036H5.80335H5.79634H5.78933H5.78231H5.77528H5.76825H5.76121H5.75417H5.74713H5.74008H5.73302H5.72596H5.7189H5.71183H5.70476H5.69768H5.6906H5.68352H5.67643H5.66934H5.66225H5.65515H5.64805H5.64095H5.63384H5.62673H5.61962H5.61251H5.60539H5.59827H5.59115H5.58403H5.5769H5.56977H5.56264H5.55551H5.54838H5.54125H5.53412H5.52698H5.51984H5.51271H5.50557H5.49843H5.49129H5.48415H5.47701H5.46987H5.46273H5.45559H5.44845H5.44131H5.43417H5.42703H5.41989H5.41275H5.40561H5.39848H5.39134H5.38421H5.37708H5.36995H5.36282H5.35569H5.34856H5.34144H5.33431H5.32719H5.32008H5.31296H5.30585H5.29874H5.29163H5.28452H5.27742H5.27032H5.26323H5.25614H5.24905H5.24196H5.23488H5.2278H5.22073H5.21366H5.20659H5.19953H5.19247H5.18542H5.17837H5.17133H5.16429H5.15725H5.15022H5.1432H5.13618H5.12917H5.12216H5.11516H5.10816H5.10117H5.09419H5.08721H5.08023H5.07327H5.06631H5.05936H5.05241H5.04547H5.03854H5.03161H5.02469H5.01778H5.01088H5.00398H4.99709H4.99021H4.98334H4.97648H4.96962H4.96277H4.95593H4.9491H4.94227H4.93546H4.92865H4.92185H4.91507H4.90829H4.90152H4.89476H4.88801H4.88126H4.87453H4.86781H4.8611H4.8544H4.8477H4.84102H4.83435H4.82769H4.82104H4.8144H4.80777H4.80116H4.79455H4.78796H4.78137H4.7748H4.76824H4.76169H4.75515H4.74863H4.74212H4.73561H4.72913H4.72265H4.71619H4.70973H4.7033H4.69687H4.69046H4.68406H4.67767H4.6713H4.66494H4.65859H4.65226H4.64594H4.63964H4.63335H4.62707H4.62081H4.61456H4.60833H4.60211H4.59591H4.58972H4.58354H4.57738H4.57124H4.56511H4.559H4.5529H4.54682H4.54075H4.5347H4.52867H4.52265H4.51665H4.51066H4.50469H4.49874H4.49281H4.48689H4.48098H4.4751H4.46923H4.46338H4.45755H4.45173H4.44594H4.44015H4.43439H4.42865H4.42292H4.41721H4.41152H4.40585H4.4002H4.39457H4.38895H4.38336H4.37778H4.37222H4.36668H4.36116H4.35566H4.35018H4.34472H4.33928H4.33386H4.32846H4.32308H4.31772H4.31238H4.30706H4.30177H4.29649H4.29123H4.286H4.28078H4.27559H4.27042H4.26527H4.26014H4.25503H4.24995H4.24488H4.23984H4.23482H4.22983H4.22485H4.2199H4.21497H4.21007H4.20518H4.20032H4.19549H4.19067H4.18588H4.18111H4.17637H4.17165H4.16696H4.16228H4.15764H4.15301H4.14841H4.14384H4.13929H4.13476H4.13026H4.12579H4.12133H4.11691H4.11251H4.10813H4.10378H4.09946H4.09516H4.09089H4.08664H4.08242H4.07822H4.07405H4.06991H4.0658H4.06171H4.05765H4.05361H4.0496H4.04562H4.04167H4.03774H4.03384H4.02997H4.02612H4.02231H4.01852H4.01476H4.01103H4.00732H4.00365H4C2.61614 19.5 1.5 18.3839 1.5 17C1.5 15.6161 2.61614 14.5 4 14.5C5.0772 14.5 5.99725 15.1963 6.34987 16.1702Z" />
</svg>
