
<svg version="1.0" xmlns="http://www.w3.org/2000/svg"
 width="85px" height="85px" viewBox="0 0 400.000000 400.000000"
 preserveAspectRatio="xMidYMid meet">

<g transform="translate(0.000000,400.000000) scale(0.100000,-0.100000)"
fill="#000000" stroke="none">
<path d="M1831 3905 c-57 -13 -100 -27 -246 -82 -22 -8 -56 -24 -74 -36 -19
-12 -76 -42 -125 -67 -67 -33 -96 -54 -113 -80 -12 -19 -30 -46 -41 -60 -10
-14 -31 -56 -46 -94 -15 -38 -43 -89 -62 -115 -59 -79 -68 -107 -65 -203 4
-135 4 -185 0 -288 -3 -78 0 -103 16 -142 23 -54 63 -80 90 -58 13 10 17 7 30
-21 8 -19 14 -26 15 -16 0 22 0 22 73 -13 60 -30 58 -26 -11 22 -18 13 -47 34
-63 47 l-29 23 27 33 c16 17 35 45 44 62 12 23 28 33 65 42 27 7 56 15 64 18
50 18 290 35 290 21 0 -5 -4 -8 -10 -8 -5 0 -10 -4 -10 -10 0 -5 9 -10 20 -10
11 0 20 4 20 10 0 5 6 7 14 4 7 -3 16 2 19 10 4 10 1 13 -9 9 -7 -3 -14 0 -14
7 0 8 9 10 25 6 17 -4 31 -1 41 9 19 19 38 20 31 1 -4 -10 4 -15 26 -19 31 -4
39 -2 85 22 13 6 27 9 32 6 5 -3 19 -1 30 5 16 9 25 8 36 -1 13 -10 17 -10 23
0 7 10 13 10 29 2 29 -15 34 -14 23 7 -8 15 -21 18 -69 17 -33 -2 -65 -6 -71
-9 -20 -13 -11 9 14 33 14 13 29 21 32 17 4 -3 17 1 30 9 15 10 23 12 23 4 0
-7 11 -9 30 -5 17 3 30 2 30 -3 0 -9 30 -7 98 5 17 4 32 11 32 17 0 17 14 -2
17 -24 2 -11 -1 -18 -7 -14 -5 3 -8 0 -5 -7 7 -18 65 -19 65 -2 0 11 5 11 25
2 14 -6 25 -15 25 -19 0 -14 63 -42 100 -45 86 -5 138 -28 118 -51 -8 -10 -3
-14 21 -19 17 -4 31 -10 31 -15 0 -11 43 -7 52 5 8 12 30 17 82 18 58 1 93
-41 102 -122 l7 -61 21 30 c11 16 43 56 69 90 79 100 94 169 56 263 -87 219
-111 271 -157 343 -24 39 -51 81 -60 95 -36 57 -91 114 -152 155 -36 25 -85
59 -110 76 -80 57 -233 137 -305 159 -91 29 -299 37 -394 15z m93 -929 c-7
-17 -44 -23 -44 -6 0 10 41 31 48 25 1 -1 0 -10 -4 -19z m-64 4 c0 -5 -5 -10
-11 -10 -5 0 -7 5 -4 10 3 6 8 10 11 10 2 0 4 -4 4 -10z"/>
<path d="M2270 2949 c0 -5 5 -7 10 -4 6 3 10 8 10 11 0 2 -4 4 -10 4 -5 0 -10
-5 -10 -11z"/>
<path d="M2310 2946 c0 -17 30 -30 42 -18 5 5 -3 14 -17 20 -20 9 -25 9 -25
-2z"/>
<path d="M1661 2759 c-17 -10 -38 -19 -47 -19 -9 0 -14 -7 -12 -17 2 -11 11
-17 23 -16 11 2 48 0 83 -3 l63 -6 -68 -24 c-54 -18 -77 -33 -110 -71 -23 -26
-40 -49 -37 -52 3 -3 10 3 17 14 47 86 209 136 328 101 72 -20 118 -52 142
-99 15 -29 17 -40 7 -52 -6 -8 -9 -19 -5 -25 4 -6 1 -18 -6 -26 -10 -13 -9
-21 5 -44 13 -23 14 -34 6 -49 -19 -37 -10 -46 12 -11 12 19 21 38 20 42 -1 4
5 5 13 2 10 -4 16 3 20 23 4 15 8 33 10 40 2 7 0 15 -5 18 -6 4 -10 1 -10 -5
0 -6 -5 -8 -12 -4 -8 5 -7 10 4 18 12 9 13 15 4 29 -13 21 5 37 41 37 12 0 25
5 29 11 4 8 -12 10 -55 7 -33 -1 -61 0 -61 3 0 4 -13 21 -29 38 -18 19 -24 31
-15 31 8 0 14 -4 14 -8 0 -5 6 -9 13 -9 26 0 -12 54 -56 80 -61 35 -131 55
-218 60 -64 4 -82 2 -108 -14z"/>
<path d="M2615 2772 c-10 -9 -120 -39 -179 -50 -39 -7 -95 -40 -92 -55 1 -7 5
-18 9 -24 12 -19 -31 -72 -53 -66 -16 4 -18 0 -13 -37 4 -25 1 -51 -7 -65 -15
-27 -6 -75 14 -75 7 0 20 -15 27 -32 16 -38 73 -104 103 -120 12 -6 2 6 -22
27 -51 45 -86 108 -78 141 4 13 1 32 -6 43 -23 38 40 154 102 186 14 7 74 23
131 35 57 11 109 26 114 34 6 8 22 11 43 8 40 -5 41 8 2 36 -30 22 -78 29 -95
14z"/>
<path d="M2735 2664 c6 -5 26 -23 45 -39 l35 -30 -25 28 c-14 16 -34 33 -45
39 -11 6 -15 6 -10 2z"/>
<path d="M2070 2620 c0 -5 5 -10 10 -10 6 0 10 5 10 10 0 6 -4 10 -10 10 -5 0
-10 -4 -10 -10z"/>
<path d="M2450 2598 c-39 -11 -76 -41 -83 -68 -3 -13 2 -19 22 -23 14 -3 28
-1 31 4 3 4 24 11 45 15 51 8 72 19 80 43 4 13 12 17 32 13 25 -5 25 -6 8 -18
-17 -12 -11 -14 48 -14 55 0 65 3 61 15 -14 35 -164 56 -244 33z m43 -35 c-7
-2 -19 -2 -25 0 -7 3 -2 5 12 5 14 0 19 -2 13 -5z"/>
<path d="M1705 2571 c-92 -34 -115 -45 -115 -55 0 -5 16 -5 38 -1 40 9 77 10
164 4 48 -3 60 0 81 19 21 20 25 21 37 7 9 -11 9 -15 1 -15 -7 0 -9 -4 -6 -10
3 -5 17 -10 31 -10 14 0 34 -5 45 -10 34 -19 3 32 -37 59 -48 33 -167 39 -239
12z m126 -22 c-16 -6 -28 -6 -35 1 -7 7 1 10 25 9 32 0 33 -1 10 -10z"/>
<path d="M1437 2549 c7 -7 15 -10 18 -7 3 3 -2 9 -12 12 -14 6 -15 5 -6 -5z"/>
<path d="M1518 2533 c7 -3 16 -2 19 1 4 3 -2 6 -13 5 -11 0 -14 -3 -6 -6z"/>
<path d="M2832 2495 c0 -16 2 -22 5 -12 2 9 2 23 0 30 -3 6 -5 -1 -5 -18z"/>
<path d="M1534 2495 c-10 -25 6 -107 31 -155 30 -59 102 -126 151 -139 94 -26
208 0 271 61 18 17 33 35 33 39 0 5 -15 -6 -32 -23 -56 -52 -113 -72 -200 -71
-69 1 -82 5 -122 32 -76 53 -117 128 -118 218 -1 54 -4 64 -14 38z"/>
<path d="M1182 2480 c-10 -26 -7 -40 8 -40 13 0 18 23 10 45 -7 19 -8 19 -18
-5z"/>
<path d="M2821 2434 c0 -11 3 -14 6 -6 3 7 2 16 -1 19 -3 4 -6 -2 -5 -13z"/>
<path d="M2755 2310 c-26 -29 -79 -60 -128 -76 -28 -8 -34 -13 -19 -13 32 -1
111 41 146 78 17 17 27 31 24 31 -3 0 -13 -9 -23 -20z"/>
<path d="M2558 2213 c7 -3 16 -2 19 1 4 3 -2 6 -13 5 -11 0 -14 -3 -6 -6z"/>
<path d="M1940 2148 c-50 -82 -3 -134 127 -144 38 -2 79 -7 93 -9 14 -3 39 -1
55 4 29 9 29 9 -12 10 -23 1 -57 10 -77 21 -27 16 -48 20 -97 18 -61 -3 -64
-2 -77 25 -12 24 -12 34 2 68 19 47 13 51 -14 7z"/>
<path d="M2340 1879 c-47 -4 -183 -10 -303 -12 -119 -2 -220 -7 -224 -10 -10
-11 28 -47 82 -78 61 -35 80 -38 65 -8 -6 11 -10 30 -8 42 3 20 9 22 78 23 91
2 243 14 249 20 2 2 11 -2 19 -9 12 -9 16 -9 19 1 3 6 20 12 38 12 37 0 52
-23 40 -60 -8 -27 -6 -26 56 16 97 65 69 81 -111 63z"/>
<path d="M1720 1355 c0 -5 196 -145 244 -174 21 -13 36 -19 32 -13 -7 12 58
37 74 27 5 -3 10 -2 10 3 0 6 -24 15 -52 22 -29 7 -93 34 -143 60 -90 48 -165
82 -165 75z"/>
<path d="M2411 1224 c-7 -36 -18 -85 -25 -108 -8 -22 -17 -54 -21 -70 -5 -26
-4 -28 9 -17 9 8 16 24 16 38 0 14 4 22 10 18 21 -13 42 65 36 133 -3 35 -7
67 -10 69 -2 2 -9 -26 -15 -63z"/>
<path d="M1881 1058 c-17 -45 -23 -264 -11 -372 l12 -107 -27 -34 c-23 -31
-24 -36 -10 -41 9 -4 21 -17 26 -30 4 -13 16 -24 24 -24 9 0 23 -7 31 -15 9
-8 21 -15 27 -14 8 0 8 2 -1 6 -6 2 -10 9 -6 14 3 5 -1 9 -8 9 -17 1 21 30 39
30 9 0 13 -17 13 -59 0 -71 13 -86 69 -76 37 6 131 74 104 75 -6 0 -14 -6 -16
-12 -3 -8 -6 -5 -6 5 -1 10 -5 16 -10 13 -12 -8 -41 38 -41 64 0 11 5 20 10
20 6 0 10 -6 8 -13 -3 -12 37 -59 44 -51 2 2 3 22 2 44 -2 40 9 53 20 24 10
-25 7 -59 -6 -72 -9 -9 -8 -12 4 -12 9 0 38 31 65 69 49 71 66 81 134 81 19 0
29 -5 29 -15 0 -16 66 -86 78 -83 4 1 42 -21 85 -49 42 -28 94 -57 115 -64 20
-6 50 -19 65 -28 27 -15 29 -15 42 3 40 53 109 333 120 479 8 107 7 107 -53
86 -24 -8 -35 -7 -55 5 -19 13 -33 14 -73 7 -63 -12 -131 -35 -221 -73 l-72
-30 -31 25 c-45 38 -65 41 -99 16 l-30 -22 -116 92 c-65 50 -123 91 -131 91
-7 0 -18 8 -23 18 -9 14 -12 15 -20 3 -10 -15 -31 -7 -31 14 0 13 -21 25 -46
25 -8 0 -18 -10 -23 -22z m229 -148 c0 -4 -9 -10 -20 -13 -11 -3 -20 -1 -20 4
0 5 5 9 12 9 6 0 3 7 -8 15 -18 14 -17 14 9 4 15 -7 27 -15 27 -19z m296 -134
c-26 -21 -26 -22 -6 -39 11 -9 25 -17 30 -17 6 0 10 -7 10 -15 0 -24 -51 -19
-57 6 -5 16 -8 18 -15 7 -5 -8 -6 -4 -2 13 3 15 1 30 -5 33 -6 4 -11 12 -11
17 0 6 5 7 10 4 6 -3 10 0 10 9 0 19 20 26 43 14 17 -9 17 -11 -7 -32z m264
-51 c-7 -9 -11 -17 -9 -19 2 -1 15 -10 29 -19 13 -9 20 -17 15 -17 -23 1 -56
36 -49 53 3 9 11 17 16 17 6 0 5 -7 -2 -15z m100 -8 c0 -14 -19 -37 -31 -37
-4 0 -2 11 4 25 13 27 27 33 27 12z m-290 -157 c0 -11 -4 -20 -10 -20 -5 0
-10 9 -10 20 0 11 5 20 10 20 6 0 10 -9 10 -20z"/>
<path d="M3082 400 c44 -56 59 -72 65 -67 8 9 -25 52 -59 77 l-33 24 27 -34z"/>
<path d="M1370 351 c23 -14 150 -25 150 -14 0 11 -70 23 -129 23 -25 -1 -32
-3 -21 -9z"/>
<path d="M1590 303 c0 -20 -4 -21 -46 -18 -25 2 -52 1 -60 -2 -29 -11 -2 -20
61 -21 54 0 65 3 65 16 0 10 -5 24 -10 32 -8 12 -10 11 -10 -7z"/>
<path d="M3120 316 c0 -2 11 -15 25 -30 14 -15 45 -68 70 -119 25 -51 45 -89
45 -85 0 13 -81 213 -91 222 -8 9 -49 19 -49 12z"/>
</g>
</svg>
